<svg xmlns="http://www.w3.org/2000/svg" width="1000" height="360" viewBox="0 0 1000 360" role="img" aria-labelledby="title description">
  <title id="title">Kleio. Every voice. Worth keeping.</title>
  <desc id="description">Two speech bubbles in cream and navy on a sky-blue background, matching the Kleio website.</desc>
  <rect width="1000" height="360" rx="24" fill="#58b7ed"/>
  <g transform="translate(40 26)" fill="#102e55">
    <path d="M12 3h16a10 10 0 0 1 10 10v3a10 10 0 0 1-10 10h-8L9 34v-9A10 10 0 0 1 2 16v-3A10 10 0 0 1 12 3Z"/>
    <path d="M30 15h6a10 10 0 0 1 10 10v3a10 10 0 0 1-8 10v3l-7-3h-6a10 10 0 0 1-10-10" fill="none" stroke="#102e55" stroke-width="3" stroke-linecap="round" stroke-linejoin="round"/>
    <path d="M11 13h17M11 19h11" fill="none" stroke="#58b7ed" stroke-width="3" stroke-linecap="round"/>
    <text x="62" y="33" font-family="-apple-system, BlinkMacSystemFont, 'Segoe UI', sans-serif" font-size="40" font-weight="800" letter-spacing="-2">kleio</text>
  </g>
  <path d="M96 94h301a56 56 0 0 1 56 56v48a56 56 0 0 1-56 56H96a56 56 0 0 1-56-56v-48a56 56 0 0 1 56-56Z" fill="#fff4dd"/>
  <path d="m420 203 53 51h-77Z" fill="#fff4dd"/>
  <path d="M547 160h357a56 56 0 0 1 56 56v42a56 56 0 0 1-56 56H547a56 56 0 0 1-56-56v-42a56 56 0 0 1 56-56Z" fill="#102e55"/>
  <path d="m525 171-54-11 20 64Z" fill="#102e55"/>
  <g font-family="-apple-system, BlinkMacSystemFont, 'Segoe UI', sans-serif" font-size="56" font-weight="800" letter-spacing="-2">
    <text x="74" y="195" fill="#102e55">Every voice.</text>
    <text x="525" y="258" fill="#fff4dd">Worth keeping.</text>
  </g>
  <text x="40" y="329" fill="#102e55" font-family="-apple-system, BlinkMacSystemFont, 'Segoe UI', sans-serif" font-size="19" font-weight="500">Your microphone. The call. Transcribed on your Mac.</text>
</svg>
